<svg xmlns="http://www.w3.org/2000/svg" viewBox="0 0 198.4 27.51"><defs><style>.cls-1{fill:#fff;}</style></defs><title>Asset 1</title><g id="Layer_2" data-name="Layer 2"><g id="Layer_1-2" data-name="Layer 1"><path class="cls-1" d="M1.24,1.7v8.81H13.85v1.24H1.24V22.57H0V.46H15V1.7Z"/><path class="cls-1" d="M19.75,22.57V.46H21v22.1Z"/><path class="cls-1" d="M41,20.68a10.9,10.9,0,0,1-6.52,2.2,8.72,8.72,0,0,1-9-8.81c0-4.85,3.43-8.84,8.38-8.81,4.45,0,7.76,4,7.76,8.81v.62H26.77a7.59,7.59,0,0,0,7.7,7A10.63,10.63,0,0,0,41,19.14Zm-.65-7.23c-.43-4-3.09-6.92-6.49-7-3.74,0-6.62,3-7.08,7Z"/><path class="cls-1" d="M45.54,22.57H44l7.23-8.5-7.27-8.5h1.61l6.52,7.7,6.49-7.7h1.64l-7.3,8.5,7.3,8.5H58.55l-6.49-7.7Z"/><path class="cls-1" d="M64.52,16.41a13.3,13.3,0,0,0,8.22,3.22c3,0,4.82-1.39,4.82-3.18,0-2-1.79-2.69-5-3.62-4.79-1.39-8-3.18-8-6.89,0-4.33,4-5.94,8.25-5.94A15.75,15.75,0,0,1,80,1.82V5.53c-3.74-2-5.53-2.13-7.23-2.13-2.66,0-4.51.77-4.51,2.35s1.3,2.44,4.7,3.56c6.28,1.76,8.35,3.65,8.35,7.2,0,3.71-3.46,6.52-8.53,6.52a12.86,12.86,0,0,1-8.22-2.6Z"/><path class="cls-1" d="M88.54,7.57a6.31,6.31,0,0,1,4.95-2.32c4.7,0,6.77,3.55,6.77,8.41v8.9h-3.4V13.82c0-3.31-1.3-5.47-4.17-5.47-2.5,0-4.14,2.16-4.14,5.32v8.9h-3.4V.46h3.4Z"/><path class="cls-1" d="M112,5.26a8.72,8.72,0,0,1,8.78,8.81,8.79,8.79,0,1,1-17.59,0A8.73,8.73,0,0,1,112,5.26Zm0,14.53a5.62,5.62,0,0,0,5.38-5.72,5.4,5.4,0,1,0-10.79,0A5.63,5.63,0,0,0,112,19.78Z"/><path class="cls-1" d="M127.74,7.73a6.53,6.53,0,0,1,5.1-2.47c4.73,0,8,4,8,8.81s-3.28,8.81-8,8.81a6.42,6.42,0,0,1-5.1-2.47v7.11h-3.4V5.56h3.4Zm4.82,12.06c2.84,0,4.88-2.72,4.88-5.72s-2-5.72-4.88-5.72-4.82,2.72-4.82,5.72S129.75,19.78,132.57,19.78Z"/><path class="cls-1" d="M147.81,7.73a6.53,6.53,0,0,1,5.1-2.47c4.73,0,8,4,8,8.81s-3.28,8.81-8,8.81a6.42,6.42,0,0,1-5.1-2.47v7.11h-3.4V5.56h3.4Zm4.82,12.06c2.84,0,4.88-2.72,4.88-5.72s-2-5.72-4.88-5.72-4.82,2.72-4.82,5.72S149.82,19.78,152.63,19.78Z"/><path class="cls-1" d="M166.67,15.46a5.2,5.2,0,0,0,5.47,4.33,14.93,14.93,0,0,0,6.62-1.7v3.25a14.31,14.31,0,0,1-6.62,1.55c-5.94,0-8.9-4.11-8.9-9s3.37-8.69,8.32-8.66c4.48,0,7.79,3.8,7.79,8.66a12.64,12.64,0,0,1-.09,1.55Zm9.27-3.09a4.73,4.73,0,0,0-4.42-4,4.92,4.92,0,0,0-4.88,4Z"/><path class="cls-1" d="M186.61,8.35c1.48-2.63,4-3.09,6.24-3.09V8.93c-3.83-.15-6.24,2-6.24,6.12v7.51h-3.4v-17h3.4Z"/><path class="cls-1" d="M196.19,2.28a2.27,2.27,0,0,1,1.09.29,2,2,0,0,1,.83.82,2.22,2.22,0,0,1,0,2.21,2.06,2.06,0,0,1-.82.82,2.22,2.22,0,0,1-2.2,0,2.06,2.06,0,0,1-.82-.82,2.21,2.21,0,0,1,0-2.21,2,2,0,0,1,.83-.82A2.27,2.27,0,0,1,196.19,2.28Zm0,.37a1.88,1.88,0,0,0-.91.24,1.71,1.71,0,0,0-.69.68,1.84,1.84,0,0,0,0,1.84,1.74,1.74,0,0,0,.68.68,1.84,1.84,0,0,0,1.83,0,1.73,1.73,0,0,0,.68-.68A1.86,1.86,0,0,0,198,4.5a1.88,1.88,0,0,0-.25-.92,1.71,1.71,0,0,0-.69-.68A1.88,1.88,0,0,0,196.19,2.65Zm-1,3.07V3.34H196a2,2,0,0,1,.61.07.59.59,0,0,1,.3.23.61.61,0,0,1,.11.35.63.63,0,0,1-.19.45.73.73,0,0,1-.49.22.65.65,0,0,1,.2.13,2.72,2.72,0,0,1,.35.47l.29.47h-.47l-.21-.38a1.92,1.92,0,0,0-.4-.55.49.49,0,0,0-.31-.08h-.23v1Zm.38-1.34h.47a.75.75,0,0,0,.46-.1.33.33,0,0,0,.12-.26.32.32,0,0,0-.06-.19.35.35,0,0,0-.16-.12,1.21,1.21,0,0,0-.39,0h-.44Z"/></g></g></svg>